<?xml version="1.0" encoding="utf-8"?>
<!-- Generator: Adobe Illustrator 22.0.1, SVG Export Plug-In . SVG Version: 6.00 Build 0)  -->
<svg version="1.1" id="Layer_1" xmlns="http://www.w3.org/2000/svg" xmlns:xlink="http://www.w3.org/1999/xlink" x="0px" y="0px"
	 viewBox="0 0 26 26" style="enable-background:new 0 0 26 26;" xml:space="preserve">
<style type="text/css">
	.st0{fill:#FFFFFF;}
</style>
<g>
	<polygon class="st0" points="13.5,7.7 19,12.6 6.1,12.6 6.1,13.3 19.1,13.3 13.5,18.3 14,18.8 20.4,13 13.9,7.2 	"/>
	<path class="st0" d="M13,0.5C6.1,0.5,0.5,6.1,0.5,13c0,6.9,5.6,12.5,12.5,12.5S25.5,19.9,25.5,13C25.5,6.1,19.9,0.5,13,0.5z
		 M13,24.9C6.5,24.9,1.1,19.5,1.1,13S6.5,1.1,13,1.1S24.9,6.5,24.9,13S19.5,24.9,13,24.9z"/>
</g>
</svg>
