<?xml version="1.0" encoding="utf-8"?>
<!-- Generator: Adobe Illustrator 22.0.1, SVG Export Plug-In . SVG Version: 6.00 Build 0)  -->
<svg version="1.1" id="Layer_1" xmlns="http://www.w3.org/2000/svg" xmlns:xlink="http://www.w3.org/1999/xlink" x="0px" y="0px"
	 viewBox="0 0 26 26" style="enable-background:new 0 0 26 26;" xml:space="preserve">
<style type="text/css">
	.st0{fill:#FFFFFF;}
</style>
<g>
	<polygon class="st0" points="12.5,18.3 7,13.4 19.9,13.4 19.9,12.7 6.9,12.7 12.5,7.7 12,7.2 5.6,13 12.1,18.8 	"/>
	<path class="st0" d="M13,25.5c6.9,0,12.5-5.6,12.5-12.5c0-6.9-5.6-12.5-12.5-12.5S0.5,6.1,0.5,13C0.5,19.9,6.1,25.5,13,25.5z
		 M13,1.1c6.5,0,11.9,5.3,11.9,11.9S19.5,24.9,13,24.9S1.1,19.5,1.1,13S6.5,1.1,13,1.1z"/>
</g>
</svg>
